<svg width="24" height="24" viewBox="0 0 24 24" fill="none" xmlns="http://www.w3.org/2000/svg">
<mask id="mask0_31_93" style="mask-type:alpha" maskUnits="userSpaceOnUse" x="0" y="0" width="24" height="24">
<rect width="24" height="24" fill="#D9D9D9"/>
</mask>
<g mask="url(#mask0_31_93)">
<path d="M5.075 21.225C4.44167 21.225 3.90433 21 3.463 20.55C3.021 20.1 2.8 19.5667 2.8 18.95V5.10001C2.8 4.46668 3.021 3.92901 3.463 3.48701C3.90433 3.04568 4.44167 2.82501 5.075 2.82501H18.925C19.5583 2.82501 20.096 3.04568 20.538 3.48701C20.9793 3.92901 21.2 4.46668 21.2 5.10001V12C20.85 11.8 20.4833 11.6333 20.1 11.5C19.7167 11.3667 19.325 11.2667 18.925 11.2V5.10001H5.075V18.95H10.975C11.0083 19.3667 11.0833 19.7623 11.2 20.137C11.3167 20.5123 11.4667 20.875 11.65 21.225H5.075ZM5.075 18.95V5.10001V11.2V11.15V18.95ZM7.075 16.95H11.05C11.1 16.6 11.1833 16.2583 11.3 15.925C11.4167 15.5917 11.55 15.2667 11.7 14.95H7.075V16.95ZM7.075 13.025H13.15C13.6667 12.5417 14.246 12.1457 14.888 11.837C15.5293 11.529 16.2083 11.3167 16.925 11.2V11.025H7.075V13.025ZM7.075 9.10001H16.925V7.10001H7.075V9.10001ZM17.925 23.125C16.5417 23.125 15.3627 22.6377 14.388 21.663C13.4127 20.6877 12.925 19.5083 12.925 18.125C12.925 16.7417 13.4127 15.5627 14.388 14.588C15.3627 13.6127 16.5417 13.125 17.925 13.125C19.3083 13.125 20.4873 13.6127 21.462 14.588C22.4373 15.5627 22.925 16.7417 22.925 18.125C22.925 19.5083 22.4373 20.6877 21.462 21.663C20.4873 22.6377 19.3083 23.125 17.925 23.125ZM17.35 21.225H18.525V18.725H21.025V17.55H18.525V15.05H17.35V17.55H14.85V18.725H17.35V21.225Z" fill="#1C1B1F"/>
</g>
</svg>
