<svg width="24" height="24" viewBox="0 0 24 24" fill="none" xmlns="http://www.w3.org/2000/svg">
<mask id="mask0_31_88" style="mask-type:alpha" maskUnits="userSpaceOnUse" x="0" y="0" width="24" height="24">
<rect width="24" height="24" fill="#D9D9D9"/>
</mask>
<g mask="url(#mask0_31_88)">
<path d="M5.075 21.225C4.44167 21.225 3.90433 21 3.463 20.55C3.021 20.1 2.8 19.5667 2.8 18.95V5.1C2.8 4.46666 3.021 3.929 3.463 3.487C3.90433 3.04566 4.44167 2.825 5.075 2.825H9.075C9.325 2.20833 9.71267 1.72066 10.238 1.362C10.7627 1.004 11.35 0.824997 12 0.824997C12.65 0.824997 13.2377 1.004 13.763 1.362C14.2877 1.72066 14.675 2.20833 14.925 2.825H18.925C19.5583 2.825 20.096 3.04566 20.538 3.487C20.9793 3.929 21.2 4.46666 21.2 5.1V18.95C21.2 19.5667 20.9793 20.1 20.538 20.55C20.096 21 19.5583 21.225 18.925 21.225H5.075ZM5.075 18.95H18.925V5.1H5.075V18.95ZM7.075 16.95H13.975V14.95H7.075V16.95ZM7.075 13.025H16.925V11.025H7.075V13.025ZM7.075 9.1H16.925V7.1H7.075V9.1ZM12 4.325C12.2333 4.325 12.425 4.25 12.575 4.1C12.725 3.95 12.8 3.75833 12.8 3.525C12.8 3.29166 12.725 3.1 12.575 2.95C12.425 2.8 12.2333 2.725 12 2.725C11.7667 2.725 11.575 2.8 11.425 2.95C11.275 3.1 11.2 3.29166 11.2 3.525C11.2 3.75833 11.275 3.95 11.425 4.1C11.575 4.25 11.7667 4.325 12 4.325Z" fill="#1C1B1F"/>
</g>
</svg>
