<svg width="24" height="24" viewBox="0 0 24 24" fill="none" xmlns="http://www.w3.org/2000/svg">
<mask id="mask0_31_83" style="mask-type:alpha" maskUnits="userSpaceOnUse" x="0" y="0" width="24" height="24">
<rect width="24" height="24" fill="#D9D9D9"/>
</mask>
<g mask="url(#mask0_31_83)">
<path d="M6.025 19.2V20.025C6.025 20.3583 5.90833 20.6373 5.675 20.862C5.44167 21.0873 5.15833 21.2 4.825 21.2H4C3.66667 21.2 3.38333 21.0833 3.15 20.85C2.91667 20.6167 2.8 20.3333 2.8 20V11.95L4.9 5.925C5.01667 5.59167 5.221 5.32067 5.513 5.112C5.80433 4.904 6.13333 4.8 6.5 4.8H17.5C17.8667 4.8 18.196 4.904 18.488 5.112C18.7793 5.32067 18.9833 5.59167 19.1 5.925L21.2 11.95V20C21.2 20.3333 21.0833 20.6167 20.85 20.85C20.6167 21.0833 20.3333 21.2 20 21.2H19.175C18.8417 21.2 18.5583 21.0873 18.325 20.862C18.0917 20.6373 17.975 20.3583 17.975 20.025V19.2H6.025ZM5.875 10H18.125L17.1 7.075H6.9L5.875 10ZM7.525 15.975C7.94167 15.975 8.296 15.829 8.588 15.537C8.87933 15.2457 9.025 14.8917 9.025 14.475C9.025 14.0583 8.87933 13.704 8.588 13.412C8.296 13.1207 7.94167 12.975 7.525 12.975C7.10833 12.975 6.75433 13.1207 6.463 13.412C6.171 13.704 6.025 14.0583 6.025 14.475C6.025 14.8917 6.171 15.2457 6.463 15.537C6.75433 15.829 7.10833 15.975 7.525 15.975ZM16.475 15.975C16.8917 15.975 17.246 15.829 17.538 15.537C17.8293 15.2457 17.975 14.8917 17.975 14.475C17.975 14.0583 17.8293 13.704 17.538 13.412C17.246 13.1207 16.8917 12.975 16.475 12.975C16.0583 12.975 15.7043 13.1207 15.413 13.412C15.121 13.704 14.975 14.0583 14.975 14.475C14.975 14.8917 15.121 15.2457 15.413 15.537C15.7043 15.829 16.0583 15.975 16.475 15.975ZM5.075 16.925H18.925V12H5.075V16.925Z" fill="#1C1B1F"/>
</g>
</svg>
