<svg width="24" height="24" viewBox="0 0 24 24" fill="none" xmlns="http://www.w3.org/2000/svg">
<mask id="mask0_31_78" style="mask-type:alpha" maskUnits="userSpaceOnUse" x="0" y="0" width="24" height="24">
<rect width="24" height="24" fill="#D9D9D9"/>
</mask>
<g mask="url(#mask0_31_78)">
<path d="M6.075 18.425C6.075 18.7011 6.29886 18.925 6.575 18.925H8.35C8.62614 18.925 8.85 18.7011 8.85 18.425V13.35C8.85 13.0739 9.07386 12.85 9.35 12.85H14.65C14.9261 12.85 15.15 13.0739 15.15 13.35V18.425C15.15 18.7011 15.3739 18.925 15.65 18.925H17.425C17.7011 18.925 17.925 18.7011 17.925 18.425V10.2756C17.925 10.1179 17.8506 9.96941 17.7242 9.87503L12.2992 5.82344C12.1217 5.69092 11.8783 5.69092 11.7008 5.82344L6.27581 9.87503C6.14943 9.96941 6.075 10.1179 6.075 10.2756V18.425ZM4.3 21.2C4.02386 21.2 3.8 20.9761 3.8 20.7V9.15C3.8 8.99262 3.8741 8.84443 4 8.75L11.7 2.975C11.8778 2.84167 12.1222 2.84167 12.3 2.975L20 8.75C20.1259 8.84443 20.2 8.99262 20.2 9.15V20.7C20.2 20.9761 19.9761 21.2 19.7 21.2H13.45C13.1739 21.2 12.95 20.9761 12.95 20.7V15.55C12.95 15.2739 12.7261 15.05 12.45 15.05H11.55C11.2739 15.05 11.05 15.2739 11.05 15.55V20.7C11.05 20.9761 10.8261 21.2 10.55 21.2H4.3Z" fill="#1C1B1F"/>
</g>
</svg>
