<svg width="24" height="24" viewBox="0 0 24 24" fill="none" xmlns="http://www.w3.org/2000/svg">
<mask id="mask0_31_98" style="mask-type:alpha" maskUnits="userSpaceOnUse" x="0" y="0" width="24" height="24">
<rect width="24" height="24" fill="#D9D9D9"/>
</mask>
<g mask="url(#mask0_31_98)">
<path d="M8 12.55C8 13.65 8.31667 14.7167 8.95 15.75C9.58333 16.7833 10.4417 17.4833 11.525 17.85C11.6083 17.8833 11.6873 17.9043 11.762 17.913C11.8373 17.921 11.9167 17.925 12 17.925C12.0833 17.925 12.1627 17.921 12.238 17.913C12.3127 17.9043 12.3917 17.8833 12.475 17.85C13.5583 17.4833 14.4167 16.7833 15.05 15.75C15.6833 14.7167 16 13.65 16 12.55V10.925C16 10.6417 15.925 10.379 15.775 10.137C15.625 9.89567 15.425 9.70833 15.175 9.575L12.675 8.325C12.4583 8.225 12.2333 8.175 12 8.175C11.7667 8.175 11.5417 8.225 11.325 8.325L8.825 9.575C8.575 9.70833 8.375 9.89567 8.225 10.137C8.075 10.379 8 10.6417 8 10.925V12.55ZM6 21C5.45 21 4.97933 20.8043 4.588 20.413C4.196 20.021 4 19.55 4 19V10C4 9.68333 4.071 9.38333 4.213 9.1C4.35433 8.81667 4.55 8.58333 4.8 8.4L10.8 3.9C11.15 3.63333 11.55 3.5 12 3.5C12.45 3.5 12.85 3.63333 13.2 3.9L19.2 8.4C19.45 8.58333 19.646 8.81667 19.788 9.1C19.9293 9.38333 20 9.68333 20 10V19C20 19.55 19.8043 20.021 19.413 20.413C19.021 20.8043 18.55 21 18 21H6ZM6 19H18V10L12 5.5L6 10V19Z" fill="#1C1B1F"/>
</g>
</svg>
