<svg width="24" height="24" viewBox="0 0 24 24" fill="none" xmlns="http://www.w3.org/2000/svg">
<mask id="mask0_31_113" style="mask-type:alpha" maskUnits="userSpaceOnUse" x="0" y="0" width="24" height="24">
<rect width="24" height="24" fill="#D9D9D9"/>
</mask>
<g mask="url(#mask0_31_113)">
<path d="M12 11.9C10.8333 11.9 9.84167 11.4873 9.025 10.662C8.20833 9.83733 7.8 8.85 7.8 7.7C7.8 6.53333 8.20833 5.54167 9.025 4.725C9.84167 3.90833 10.8333 3.5 12 3.5C13.1667 3.5 14.1583 3.90833 14.975 4.725C15.7917 5.54167 16.2 6.53333 16.2 7.7C16.2 8.85 15.7917 9.83733 14.975 10.662C14.1583 11.4873 13.1667 11.9 12 11.9ZM3.8 20.3V17.3C3.8 16.6833 3.95433 16.125 4.263 15.625C4.571 15.125 4.98333 14.7417 5.5 14.475C6.55 13.9417 7.61667 13.5457 8.7 13.287C9.78333 13.029 10.8833 12.9 12 12.9C13.1167 12.9 14.2167 13.029 15.3 13.287C16.3833 13.5457 17.45 13.9333 18.5 14.45C19.0167 14.7167 19.4293 15.1043 19.738 15.613C20.046 16.121 20.2 16.6833 20.2 17.3V20.3H3.8ZM6.075 18.025H17.925V17.325C17.925 17.1417 17.8793 16.975 17.788 16.825C17.696 16.675 17.575 16.5667 17.425 16.5C16.5583 16.05 15.6707 15.7167 14.762 15.5C13.854 15.2833 12.9333 15.175 12 15.175C11.0667 15.175 10.146 15.2833 9.238 15.5C8.32933 15.7167 7.44167 16.05 6.575 16.5C6.425 16.5667 6.30433 16.675 6.213 16.825C6.121 16.975 6.075 17.1417 6.075 17.325V18.025ZM12 9.625C12.5333 9.625 12.9877 9.43733 13.363 9.062C13.7377 8.68733 13.925 8.23333 13.925 7.7C13.925 7.16667 13.7377 6.71233 13.363 6.337C12.9877 5.96233 12.5333 5.775 12 5.775C11.4667 5.775 11.0127 5.96233 10.638 6.337C10.2627 6.71233 10.075 7.16667 10.075 7.7C10.075 8.23333 10.2627 8.68733 10.638 9.062C11.0127 9.43733 11.4667 9.625 12 9.625Z" fill="#1C1B1F"/>
</g>
</svg>
