<svg width="24" height="24" viewBox="0 0 24 24" fill="none" xmlns="http://www.w3.org/2000/svg">
<mask id="mask0_31_103" style="mask-type:alpha" maskUnits="userSpaceOnUse" x="0" y="0" width="24" height="24">
<rect width="24" height="24" fill="#D9D9D9"/>
</mask>
<g mask="url(#mask0_31_103)">
<path d="M9.24437 16.5133C9.14422 16.9452 9.61407 17.2842 9.99231 17.0528L11.7374 15.9856C11.8984 15.8871 12.1012 15.8877 12.2617 15.9872L14.0051 17.0679C14.3829 17.302 14.8555 16.9638 14.7558 16.5307L14.2927 14.5191C14.2511 14.3382 14.3131 14.1492 14.4537 14.0281L16.0236 12.6762C16.3592 12.3872 16.1811 11.8367 15.7397 11.7991L13.6993 11.6255C13.5151 11.6098 13.3546 11.4938 13.2819 11.3238L12.458 9.39638C12.2853 8.99237 11.7129 8.99157 11.539 9.3951L10.7185 11.3C10.6455 11.4693 10.4853 11.5848 10.3017 11.6004L8.25154 11.7749C7.81146 11.8123 7.63252 12.3602 7.96568 12.6502L9.54829 14.0277C9.6878 14.1491 9.74889 14.3376 9.70711 14.5178L9.24437 16.5133ZM6.53731 21.8114C6.15924 22.0405 5.69159 21.7023 5.7909 21.2715L7.15751 15.3428C7.19904 15.1626 7.13774 14.9742 6.99813 14.853L2.41635 10.8741C2.0829 10.5845 2.26116 10.0364 2.70116 9.9984L8.75031 9.47589C8.9347 9.45996 9.09522 9.34347 9.16753 9.1731L11.5397 3.58433C11.7122 3.17814 12.2878 3.17814 12.4603 3.58433L14.8325 9.1731C14.9048 9.34347 15.0653 9.45996 15.2497 9.47589L21.2988 9.9984C21.7388 10.0364 21.9171 10.5845 21.5837 10.8741L17.0019 14.853C16.8623 14.9742 16.801 15.1626 16.8425 15.3428L18.2091 21.2715C18.3084 21.7023 17.8408 22.0405 17.4627 21.8114L12.2592 18.6571C12.0999 18.5605 11.9001 18.5605 11.7408 18.6571L6.53731 21.8114Z" fill="#1C1B1F"/>
</g>
</svg>
